<svg id="Layer_1" data-name="Layer 1" xmlns="http://www.w3.org/2000/svg" viewBox="0 0 258.8 356.71">
  <title>avas_Logo-1</title>
  <g>
    <path d="M374,487l16.46-.81c0,.26,0,.52,0,.79l-6.92.74A8.52,8.52,0,0,0,380,488l-3.94.25a2.48,2.48,0,0,0-2.06.25l-3.95.22a6.49,6.49,0,0,0-3.54.34l-3.95.26a5,5,0,0,0-3.05.24,16.5,16.5,0,0,0-4.43.43,1,1,0,0,0-1.64.48c-1.5,0-3-.18-4.48-.1s-2.74,0-2.11,2.56c3.48,13.79,6.7,27.64,10,41.49,1.36,5.76,2.62,11.55,4,17.59-2.58,0-5.13,0-7.69,0-1.45,0-1.38-1.15-1.59-2-1-4-2.1-7.91-2.83-11.93-2.7-14.68-7.18-28.95-10.16-43.57-.21-1,.31-3.17-2-3.17a2.8,2.8,0,0,0-2.07.14l-3.45.19a8,8,0,0,0-3.54.33l-3.95.26a2.49,2.49,0,0,0-2.06.22l-3.94.24a6.61,6.61,0,0,0-3.55.33c-1.51.07-3.06-.18-4.52.45-1-.66-1.73,0-2.53.45-7,.49-14,.26-20.91,1.2a7.76,7.76,0,0,0-3.55.31l-3.94.25A3.72,3.72,0,0,0,276,496l-3.45.2a6.21,6.21,0,0,0-3.54.33l-3.94.27a6.07,6.07,0,0,0-3.55.29,12.17,12.17,0,0,0-3.94.37c-.88-.57-1.49,0-2.11.5a163.18,163.18,0,0,0-16.4.88,1.83,1.83,0,0,0-1.58.1l-3.94.24a8.22,8.22,0,0,0-3.55.32l-3.45.2A3.69,3.69,0,0,0,224,500l-3.94.24a6.53,6.53,0,0,0-3.55.33c-1.51.07-3-.17-4.51.44-1-.67-1.74,0-2.54.46-7,.48-14,.26-20.92,1.19A7.73,7.73,0,0,0,185,503l-3.94.24a2.45,2.45,0,0,0-2.06.25l-3.95.23a6.12,6.12,0,0,0-3.54.34l-3.95.26a4.91,4.91,0,0,0-3.05.24,16.11,16.11,0,0,0-4.43.43,1,1,0,0,0-1.65.48,19.87,19.87,0,0,0-4.42-.08c-2.94.59-4-.6-3.74-3.36l.39-1.45c4.29.12,8.52-.55,12.79-.78a12,12,0,0,0,4.55-.3l4.45-.2a4.92,4.92,0,0,0,3.05-.3l4.46-.17a11.06,11.06,0,0,0,4.54-.33l4.94-.26a11.1,11.1,0,0,0,4.55-.31l4.94-.29a3.4,3.4,0,0,0,2.56-.19l7-.41a2.53,2.53,0,0,0,2-.08q25.9-1.54,51.82-3.1,36.26-2.19,72.51-4.41c1.62-.09,2.56,0,1.95-2.32-2-7.64-3.71-15.38-5.53-23.07-2.11-8.86-4.26-17.71-6.33-26.58-.73-3.16-1-3.36-4.26-2.57a79.1,79.1,0,0,1-14.71,2.21A59.21,59.21,0,0,1,294,436c-8.28-1.34-15.55-5.43-22.77-9.33-8-4.31-13.74-11.28-19.23-18.37A55.6,55.6,0,0,1,243,390.54c-1.69,1.25-.87,3.08-1.49,4.5a22,22,0,0,0-1.07,4.76c-1.17,6.32-2.29,12.66-3.5,19-1.44,7.5-2.94,15-4.43,22.49-1.94,9.73-3.93,19.46-5.82,29.2-.93,4.8-1.69,9.64-2.55,14.46a7.32,7.32,0,0,1-.59,2.13c-.36.68-.86,1.61-1.48,1.78-1.2.31-.56-1.06-1-1.59-1.47-1.8-2.75-3.75-4.18-5.59-2.86-3.66-5.8-7.26-8.64-10.93-4.35-5.62-8.62-11.29-13-16.9-1-1.23-2.24-2.2-3.21-3.43-3.6-4.55-7.12-9.17-10.69-13.74-.49-.62-.63-1.18-.05-1.74a1.6,1.6,0,0,1,2.25-.05c1.88,1.41,3.76,2.83,5.62,4.27q11.47,8.87,22.94,17.73c2.05,1.57,2.12,1.38,2.89-1.22,2.68-9.06,4.52-18.34,6.95-27.47,2.09-7.86,3.76-15.87,5.59-23.82,2-8.64,4-17.26,6-25.91,1.41-6.35,2.5-12.78,4-19.1,2-8.6,3.49-17.33,5.9-25.85.8-2.84,1.07-5.83,1.77-8.71.17-.7,0-.66-.45-.94-3.52-2-7.1-3.94-10.44-6.28A47.44,47.44,0,0,1,218,297.91c-3-6.79-3.89-14.06-3.5-21.59.46-8.66,4.53-15.39,10.08-21.48,3.5-3.82,8.3-5.74,12.95-7.73,1.28-.55,2.94-.22,4.42-.3.56.16,1.13.31,1.56-.27l2.43-.31A1,1,0,0,0,247,246c3.91,0,7.93-.47,11.71.23,3.33.62,3.8-.23,4.49-3.24,1.16-5,2.09-10,3.29-14.94,1.87-7.78,3.66-15.59,5.42-23.4.56-2.48.94-5,1.61-7.47.28-1,.63-1.84,1.52-1.82a2.07,2.07,0,0,1,1.79,1.8c.71,3.1,1.45,6.19,2.17,9.29,1.51,6.48,3,13,4.53,19.45,2.46,10.31,5,20.61,7.47,30.91,3.14,13.05,6.3,26.09,9.39,39.15,1.89,8,3.68,16,5.5,24,.47,2.07.87,4.15,1.34,6.21s3.6,4,6.38,4.41c6.6,1.06,13.08,3,18.27,7.13a54.48,54.48,0,0,1,14.6,17.95c2.33,4.62,4.74,9.16,5.58,14.4a106.36,106.36,0,0,1,1.27,16.21c0,8.33-2.28,16.2-5.19,23.91-2.39,6.38-6.82,11.31-11.42,16.11a15.47,15.47,0,0,1-3.59,3.34c-1.13.6-.91,1.88-.67,2.92q3,12.84,6.06,25.67,3.23,13.57,6.49,27.16c.21.87.41,1.74.61,2.61.53,1.36,1.52.7,2.39.55l4.95-.24A10.26,10.26,0,0,0,357,488l4.95-.22a5.54,5.54,0,0,0,3-.3l4.95-.24A9,9,0,0,0,374,487ZM300.05,334h0c-.54-2.2-.1-4.72-2.13-6.41a.71.71,0,0,0,.5-1c-1.74-7.18-3.51-14.36-5.25-21.54-1.89-7.82-3.6-15.68-5.68-23.45-1-3.69-1.3-7.59-3-11-3.15-6.32-9.74-7.88-15.23-11-.64,2.79-1.24,5.25-1.76,7.72-3,13.91-6,27.8-8.72,41.77-.5,2.66-3.36,6,.75,8.47l-.51.05c-.95-.06-1.7-.08-2,1.22-.74,3.45-1.66,6.86-2.5,10.29l0,.55a4.43,4.43,0,0,0-.26.69c-2,9.74-4,19.49-5.94,29.24-.68,3.46-2,7-1.63,10.39A48.94,48.94,0,0,0,251.27,386a84.06,84.06,0,0,0,13.25,20.17c2.74,3,5.24,6.52,9,8.11,9.63,4.1,19.07,8.9,29.79,9.79a67.7,67.7,0,0,0,16.09-.73c1.06-.16,1.91-.62,1.57-2q-1.72-7-3.4-13.95-4.68-19.23-9.33-38.48-3.16-13.1-6.28-26.23c.31-1.18-.77-1.12-1.35-1.5,1.54-.5.89-1.64.71-2.59-.25-1.41-.59-2.8-.89-4.21ZM329,416.8c9.33-7.05,12.89-17,14.55-27.61.86-5.49.07-11.23-1.14-16.8-1.43-6.56-4.66-12.12-8.58-17.45-2.75-3.74-5.62-7.13-10.12-8.73-2.89-1-5.78-2.07-8.71-3-1.15-.35-2.45-1.69-3.35-1s.25,2.17.52,3.29q4.17,17.82,8.37,35.63c1.83,7.82,3.62,15.66,5.47,23.48C326.91,408.73,327.94,412.74,329,416.8Zm-80.4-105.33c.34-1.72.57-3.07.87-4.41,3.58-16.33,7.15-32.66,10.81-49,.21-1,.24-1.08-.73-1.48-1.71-.7-3.44-.3-5.12-.63-5.49-1.06-10.8-.87-15.56,2.5-.8.56-1.56,1.16-2.38,1.7a22.76,22.76,0,0,0-10.29,16.68c-1.33,10.27,3.36,18.68,9.16,26.45C238.48,307.57,244.19,308.29,248.55,311.47Z" transform="translate(-147.99 -195.31)" style="fill: #3a3a3a"/>
    <path d="M150.66,500.57l-.39,1.45c-1.34.55-.74,1.73-.74,2.62q-.06,22.1,0,44.21c0,.58,0,1.16,0,1.74s0,1.3-.82,1.24c-.65,0-.64-.65-.66-1.15s0-1,0-1.5V490.74a2.78,2.78,0,0,1,0-.5c.15-.74-.42-2,.75-2s.71,1.28.73,2c.05,2.75,0,5.5,0,8.24C149.5,499.38,149.34,500.39,150.66,500.57Z" transform="translate(-147.99 -195.31)" style="fill: #ededed"/>
    <path d="M390.47,486.94c0-.27,0-.53,0-.79,4.9-.9,9.91-.52,14.84-1.12.5-.07,1.51-.52,1.5.59,0,.56-.59.94-1.28.9C400.49,486.2,395.51,487.52,390.47,486.94Z" transform="translate(-147.99 -195.31)" style="fill: #4e4e4e"/>
    <path d="M168,499.49a12,12,0,0,1-4.55.3C164.89,498.53,166.44,499,168,499.49Z" transform="translate(-147.99 -195.31)" style="fill: #c8c8c8"/>
    <path d="M184.5,498.49a11.06,11.06,0,0,1-4.54.33C181.39,497.61,182.93,497.89,184.5,498.49Z" transform="translate(-147.99 -195.31)" style="fill: #c8c8c8"/>
    <path d="M194,497.92a11.1,11.1,0,0,1-4.55.31C190.89,497.12,192.42,497.35,194,497.92Z" transform="translate(-147.99 -195.31)" style="fill: #c8c8c8"/>
    <path d="M357,488a10.26,10.26,0,0,1-4.05.29C354.22,487.08,355.6,487.46,357,488Z" transform="translate(-147.99 -195.31)" style="fill: #c8c8c8"/>
    <path d="M374,487a9,9,0,0,1-4.05.27A3.65,3.65,0,0,1,374,487Z" transform="translate(-147.99 -195.31)" style="fill: #c8c8c8"/>
    <path d="M185,503a7.73,7.73,0,0,1,3.54-.32C187.46,503.88,186.24,503.57,185,503Z" transform="translate(-147.99 -195.31)" style="fill: #c8c8c8"/>
    <path d="M171.51,504.05a6.12,6.12,0,0,1,3.54-.34C174,504.89,172.75,504.61,171.51,504.05Z" transform="translate(-147.99 -195.31)" style="fill: #c8c8c8"/>
    <path d="M380,488a8.52,8.52,0,0,1,3.55-.31C382.46,488.88,381.24,488.57,380,488Z" transform="translate(-147.99 -195.31)" style="fill: #c8c8c8"/>
    <path d="M366.51,489.05a6.49,6.49,0,0,1,3.54-.34C369,489.89,367.75,489.61,366.51,489.05Z" transform="translate(-147.99 -195.31)" style="fill: #c8c8c8"/>
    <path d="M327.51,492a8,8,0,0,1,3.54-.33C330,493,328.74,492.55,327.51,492Z" transform="translate(-147.99 -195.31)" style="fill: #c8c8c8"/>
    <path d="M314,493.08a6.61,6.61,0,0,1,3.55-.33C316.47,493.87,315.26,493.63,314,493.08Z" transform="translate(-147.99 -195.31)" style="fill: #c8c8c8"/>
    <path d="M282.5,495.49a7.76,7.76,0,0,1,3.55-.31C285,496.38,283.74,496.08,282.5,495.49Z" transform="translate(-147.99 -195.31)" style="fill: #c8c8c8"/>
    <path d="M269,496.55a6.21,6.21,0,0,1,3.54-.33C271.47,497.38,270.25,497.12,269,496.55Z" transform="translate(-147.99 -195.31)" style="fill: #c8c8c8"/>
    <path d="M261.52,497.11a6.07,6.07,0,0,1,3.55-.29A3,3,0,0,1,261.52,497.11Z" transform="translate(-147.99 -195.31)" style="fill: #c8c8c8"/>
    <path d="M230,499.52a8.22,8.22,0,0,1,3.55-.32C232.46,500.37,231.25,500.09,230,499.52Z" transform="translate(-147.99 -195.31)" style="fill: #c8c8c8"/>
    <path d="M216.51,500.58a6.53,6.53,0,0,1,3.55-.33C219,501.36,217.76,501.14,216.51,500.58Z" transform="translate(-147.99 -195.31)" style="fill: #c8c8c8"/>
    <path d="M365,487.47a5.54,5.54,0,0,1-3,.3C362.86,486.64,363.91,486.89,365,487.47Z" transform="translate(-147.99 -195.31)" style="fill: #c8c8c8"/>
    <path d="M359.51,489.55a5,5,0,0,1,3.05-.24A2.27,2.27,0,0,1,359.51,489.55Z" transform="translate(-147.99 -195.31)" style="fill: #c8c8c8"/>
    <path d="M175.5,499a4.92,4.92,0,0,1-3.05.3C173.36,498.09,174.42,498.45,175.5,499Z" transform="translate(-147.99 -195.31)" style="fill: #c8c8c8"/>
    <path d="M164.51,504.55a4.91,4.91,0,0,1,3.05-.24A2.27,2.27,0,0,1,164.51,504.55Z" transform="translate(-147.99 -195.31)" style="fill: #c8c8c8"/>
    <path d="M307,494c.8-.43,1.55-1.11,2.53-.45C308.8,494.54,307.85,494.06,307,494Z" transform="translate(-147.99 -195.31)" style="fill: #c8c8c8"/>
    <path d="M276,496a3.72,3.72,0,0,1,2.56-.28C277.82,496.84,276.93,496.61,276,496Z" transform="translate(-147.99 -195.31)" style="fill: #c8c8c8"/>
    <path d="M201.49,497.44a3.4,3.4,0,0,1-2.56.19A1.81,1.81,0,0,1,201.49,497.44Z" transform="translate(-147.99 -195.31)" style="fill: #c8c8c8"/>
    <path d="M224,500a3.69,3.69,0,0,1,2.55-.29C225.82,500.83,224.94,500.63,224,500Z" transform="translate(-147.99 -195.31)" style="fill: #c8c8c8"/>
    <path d="M209.46,501.48c.8-.43,1.54-1.13,2.54-.46C211.31,502,210.35,501.56,209.46,501.48Z" transform="translate(-147.99 -195.31)" style="fill: #c8c8c8"/>
    <path d="M348,488.52c-.87.15-1.86.81-2.39-.55C346.4,488.21,347.32,487.84,348,488.52Z" transform="translate(-147.99 -195.31)" style="fill: #c8c8c8"/>
    <path d="M374,488.49a2.48,2.48,0,0,1,2.06-.25C375.48,489.24,374.77,489.08,374,488.49Z" transform="translate(-147.99 -195.31)" style="fill: #c8c8c8"/>
    <path d="M210.49,497a2.53,2.53,0,0,1-2,.08A1.28,1.28,0,0,1,210.49,497Z" transform="translate(-147.99 -195.31)" style="fill: #c8c8c8"/>
    <path d="M255.47,498c.62-.49,1.23-1.07,2.11-.5C257.09,498.57,256.22,498,255.47,498Z" transform="translate(-147.99 -195.31)" style="fill: #c8c8c8"/>
    <path d="M334.5,491.51a2.8,2.8,0,0,1,2.07-.14A1.33,1.33,0,0,1,334.5,491.51Z" transform="translate(-147.99 -195.31)" style="fill: #c8c8c8"/>
    <path d="M179,503.48a2.45,2.45,0,0,1,2.06-.25C180.48,504.25,179.77,504.08,179,503.48Z" transform="translate(-147.99 -195.31)" style="fill: #c8c8c8"/>
    <path d="M321.5,492.51a2.49,2.49,0,0,1,2.06-.22C323,493.25,322.26,493.1,321.5,492.51Z" transform="translate(-147.99 -195.31)" style="fill: #c8c8c8"/>
    <path d="M243.51,246.54c-.43.58-1,.43-1.56.27C242.33,245.92,242.86,245.88,243.51,246.54Z" transform="translate(-147.99 -195.31)" style="fill: #c8c8c8"/>
    <path d="M353.44,490.46a1,1,0,0,1,1.64-.48C354.77,491,354.06,490.58,353.44,490.46Z" transform="translate(-147.99 -195.31)" style="fill: #c8c8c8"/>
    <path d="M237.49,499a1.83,1.83,0,0,1,1.58-.1C238.59,499.56,238.06,499.56,237.49,499Z" transform="translate(-147.99 -195.31)" style="fill: #c8c8c8"/>
    <path d="M158.43,505.46a1,1,0,0,1,1.65-.48C159.77,506,159.06,505.58,158.43,505.46Z" transform="translate(-147.99 -195.31)" style="fill: #c8c8c8"/>
    <path d="M247,246a1,1,0,0,1-1.05.28C246.16,245.65,246.45,245.33,247,246Z" transform="translate(-147.99 -195.31)" style="fill: #c8c8c8"/>
    <path d="M300.4,334.4c.3,1.41.64,2.8.89,4.21.18.95.83,2.09-.71,2.59-.54.64-1.15.42-1.81.2-2-.65-4-1.31-5.93-1.84-3.6-1-6.6-3.08-10-4.29,1-3.3,1.74-6.69,3.24-9.83.58.89,1.16,1.79,1.76,2.68.73,1.09,1.25,2.77,2.25,3.14,3.22,1.19,6.43,2.58,10,2.69h0C300.16,334.11,300.28,334.26,300.4,334.4Z" transform="translate(-147.99 -195.31)" style="fill: #e98037"/>
    <path d="M254.51,329c.84-3.43,1.76-6.84,2.5-10.29.29-1.3,1-1.28,2-1.22-.42,1.89,2.33,6.27,4.31,6.92a4.55,4.55,0,0,0,4.64-.55,39.66,39.66,0,0,1,4.2-2.58A43,43,0,0,1,268.74,332c-.73-.11-1.48-.18-2.2-.33-3.31-.7-6.51-1.91-9.89-2.31-.49-.64-1.06-.3-1.61-.11Z" transform="translate(-147.99 -195.31)" style="fill: #082459"/>
    <path d="M300,334c-3.54-.11-6.75-1.5-10-2.69-1-.37-1.52-2.05-2.25-3.14-.6-.89-1.18-1.79-1.76-2.68l-.58-.89,12.43,3C299.94,329.23,299.5,331.75,300,334Z" transform="translate(-147.99 -195.31)" style="fill: #fcbd6b"/>
    <path d="M256.65,329.39c3.38.4,6.58,1.61,9.89,2.31.72.15,1.47.22,2.2.33,1.15,2.59,3.82,3.14,6.88,1.41,2.36.79,4.63,1.89,7.2,1.83,3.42,1.21,6.42,3.33,10,4.29,2,.53,4,1.19,5.93,1.84.66.22,1.27.44,1.81-.2.58.38,1.66.32,1.35,1.5a2.32,2.32,0,0,0-1.18-.84c-9.42-3-19-5.64-28.6-8-5.57-1.35-11.14-2.66-16.61-4.41Z" transform="translate(-147.99 -195.31)" style="fill: #120c0c"/>
    <path d="M272.15,321.3a39.66,39.66,0,0,0-4.2,2.58,4.55,4.55,0,0,1-4.64.55c-2-.65-4.73-5-4.31-6.92l.51-.05,11.06,3.12c.37.55,1,.42,1.54.68Z" transform="translate(-147.99 -195.31)" style="fill: #375a9f"/>
    <path d="M254.51,329l.53.26,0,.08-.48.21Z" transform="translate(-147.99 -195.31)" style="fill: #120c0c"/>
    <path d="M300.4,334.4c-.12-.14-.24-.29-.35-.44C300.16,334.11,300.28,334.26,300.4,334.4Z" transform="translate(-147.99 -195.31)" style="fill: #fcbd6b"/>
    <path d="M255,329.36l0-.08c.55-.19,1.12-.53,1.61.11l-1.11.09Z" transform="translate(-147.99 -195.31)" style="fill: #050505"/>
    <path d="M282.82,335.27c-2.57.06-4.84-1-7.2-1.83a78.77,78.77,0,0,1,3.31-10.38c1.95.09,3.52,1.75,5.58,1.38l1,.11.58.89C284.56,328.58,283.84,332,282.82,335.27Z" transform="translate(-147.99 -195.31)" style="fill: #f80706"/>
    <path d="M278.93,323.06a78.77,78.77,0,0,0-3.31,10.38c-3.06,1.73-5.73,1.18-6.88-1.41a43,43,0,0,0,3.41-10.73l0,0,.87-.33c.06.22.12.44.17.65-.11,1,.6,1.69,1,2.51s.94,1,1.6.48,2.44-.2,1.69-2h1.52A1.77,1.77,0,0,1,278.93,323.06Z" transform="translate(-147.99 -195.31)" style="fill: #89be4f"/>
    <path d="M277.41,322.6c.75,1.77-1,1.41-1.69,2s-1.27.23-1.6-.48-1.08-1.51-1-2.51A6.66,6.66,0,0,1,277.41,322.6Z" transform="translate(-147.99 -195.31)" style="fill: #fcbd6b"/>
    <path d="M278.93,323.06a1.77,1.77,0,0,0,0-.46c2,.29,4.09.11,5.58,1.84C282.45,324.81,280.88,323.15,278.93,323.06Z" transform="translate(-147.99 -195.31)" style="fill: #120c0c"/>
    <path d="M273,320.93l-.87.33c-.5-.26-1.17-.13-1.54-.68C271.4,320.52,272.28,320,273,320.93Z" transform="translate(-147.99 -195.31)" style="fill: #082459"/>
  </g>
</svg>
